<mxfile host="app.diagrams.net" agent="Mozilla/5.0 (Windows NT 10.0; Win64; x64) AppleWebKit/537.36 (KHTML, like Gecko) Chrome/132.0.0.0 Safari/537.36" version="26.0.11">
  <diagram name="Page-1" id="evlBgb8XTGEUNXx5JgyI">
    <mxGraphModel dx="1434" dy="746" grid="1" gridSize="10" guides="1" tooltips="1" connect="1" arrows="1" fold="1" page="1" pageScale="1" pageWidth="850" pageHeight="1100" math="0" shadow="0">
      <root>
        <mxCell id="0" />
        <mxCell id="1" parent="0" />
        <mxCell id="FyKXJC8bxWe7IaWZgprI-20" value="" style="rounded=0;whiteSpace=wrap;html=1;fillColor=#dae8fc;strokeColor=#6c8ebf;" vertex="1" parent="1">
          <mxGeometry x="130" y="80" width="690" height="220" as="geometry" />
        </mxCell>
        <mxCell id="FyKXJC8bxWe7IaWZgprI-21" value="" style="rounded=0;whiteSpace=wrap;html=1;fillColor=#fff2cc;strokeColor=#d6b656;" vertex="1" parent="1">
          <mxGeometry x="130" y="390" width="690" height="220" as="geometry" />
        </mxCell>
        <mxCell id="FyKXJC8bxWe7IaWZgprI-1" value="Grove Lora transceiver" style="rounded=0;whiteSpace=wrap;html=1;" vertex="1" parent="1">
          <mxGeometry x="230" y="200" width="120" height="60" as="geometry" />
        </mxCell>
        <mxCell id="FyKXJC8bxWe7IaWZgprI-5" style="edgeStyle=orthogonalEdgeStyle;rounded=0;orthogonalLoop=1;jettySize=auto;html=1;exitX=0;exitY=0.5;exitDx=0;exitDy=0;entryX=1;entryY=0.5;entryDx=0;entryDy=0;startArrow=classic;startFill=1;" edge="1" parent="1" source="FyKXJC8bxWe7IaWZgprI-2" target="FyKXJC8bxWe7IaWZgprI-1">
          <mxGeometry relative="1" as="geometry" />
        </mxCell>
        <mxCell id="FyKXJC8bxWe7IaWZgprI-16" value="UART" style="edgeLabel;html=1;align=center;verticalAlign=middle;resizable=0;points=[];labelBackgroundColor=none;" vertex="1" connectable="0" parent="FyKXJC8bxWe7IaWZgprI-5">
          <mxGeometry x="0.0444" y="2" relative="1" as="geometry">
            <mxPoint x="-3" y="-10" as="offset" />
          </mxGeometry>
        </mxCell>
        <mxCell id="FyKXJC8bxWe7IaWZgprI-2" value="Raspberry PI 4" style="rounded=0;whiteSpace=wrap;html=1;" vertex="1" parent="1">
          <mxGeometry x="440" y="200" width="120" height="60" as="geometry" />
        </mxCell>
        <mxCell id="FyKXJC8bxWe7IaWZgprI-4" style="edgeStyle=orthogonalEdgeStyle;rounded=0;orthogonalLoop=1;jettySize=auto;html=1;exitX=0;exitY=0.5;exitDx=0;exitDy=0;entryX=1;entryY=0.5;entryDx=0;entryDy=0;startArrow=classic;startFill=1;" edge="1" parent="1" source="FyKXJC8bxWe7IaWZgprI-3" target="FyKXJC8bxWe7IaWZgprI-2">
          <mxGeometry relative="1" as="geometry" />
        </mxCell>
        <mxCell id="FyKXJC8bxWe7IaWZgprI-18" value="SPI" style="edgeLabel;html=1;align=center;verticalAlign=middle;resizable=0;points=[];labelBackgroundColor=none;" vertex="1" connectable="0" parent="FyKXJC8bxWe7IaWZgprI-4">
          <mxGeometry x="0.2" y="2" relative="1" as="geometry">
            <mxPoint x="1" y="-12" as="offset" />
          </mxGeometry>
        </mxCell>
        <mxCell id="FyKXJC8bxWe7IaWZgprI-3" value="Компютърна&amp;nbsp; система" style="rounded=0;whiteSpace=wrap;html=1;" vertex="1" parent="1">
          <mxGeometry x="650" y="200" width="120" height="60" as="geometry" />
        </mxCell>
        <mxCell id="FyKXJC8bxWe7IaWZgprI-6" value="" style="verticalLabelPosition=bottom;shadow=0;dashed=0;align=center;html=1;verticalAlign=top;shape=mxgraph.electrical.radio.aerial_-_antenna_2;" vertex="1" parent="1">
          <mxGeometry x="160" y="140" width="40" height="50" as="geometry" />
        </mxCell>
        <mxCell id="FyKXJC8bxWe7IaWZgprI-7" style="edgeStyle=orthogonalEdgeStyle;rounded=0;orthogonalLoop=1;jettySize=auto;html=1;exitX=0;exitY=0.5;exitDx=0;exitDy=0;entryX=0.5;entryY=1;entryDx=0;entryDy=0;entryPerimeter=0;endArrow=none;startFill=0;" edge="1" parent="1" source="FyKXJC8bxWe7IaWZgprI-1" target="FyKXJC8bxWe7IaWZgprI-6">
          <mxGeometry relative="1" as="geometry" />
        </mxCell>
        <mxCell id="FyKXJC8bxWe7IaWZgprI-9" value="Grove Lora transceiver" style="rounded=0;whiteSpace=wrap;html=1;" vertex="1" parent="1">
          <mxGeometry x="230" y="490" width="120" height="60" as="geometry" />
        </mxCell>
        <mxCell id="FyKXJC8bxWe7IaWZgprI-10" style="edgeStyle=orthogonalEdgeStyle;rounded=0;orthogonalLoop=1;jettySize=auto;html=1;exitX=0;exitY=0.5;exitDx=0;exitDy=0;entryX=1;entryY=0.5;entryDx=0;entryDy=0;startArrow=classic;startFill=1;" edge="1" parent="1" source="FyKXJC8bxWe7IaWZgprI-11" target="FyKXJC8bxWe7IaWZgprI-9">
          <mxGeometry relative="1" as="geometry" />
        </mxCell>
        <mxCell id="FyKXJC8bxWe7IaWZgprI-17" value="UART" style="edgeLabel;html=1;align=center;verticalAlign=middle;resizable=0;points=[];labelBackgroundColor=none;" vertex="1" connectable="0" parent="FyKXJC8bxWe7IaWZgprI-10">
          <mxGeometry x="-0.0667" y="1" relative="1" as="geometry">
            <mxPoint x="-8" y="-11" as="offset" />
          </mxGeometry>
        </mxCell>
        <mxCell id="FyKXJC8bxWe7IaWZgprI-11" value="arduino module" style="rounded=0;whiteSpace=wrap;html=1;" vertex="1" parent="1">
          <mxGeometry x="440" y="490" width="120" height="60" as="geometry" />
        </mxCell>
        <mxCell id="FyKXJC8bxWe7IaWZgprI-12" style="edgeStyle=orthogonalEdgeStyle;rounded=0;orthogonalLoop=1;jettySize=auto;html=1;exitX=0;exitY=0.5;exitDx=0;exitDy=0;entryX=1;entryY=0.5;entryDx=0;entryDy=0;startArrow=classic;startFill=1;" edge="1" parent="1" source="FyKXJC8bxWe7IaWZgprI-13" target="FyKXJC8bxWe7IaWZgprI-11">
          <mxGeometry relative="1" as="geometry" />
        </mxCell>
        <mxCell id="FyKXJC8bxWe7IaWZgprI-19" value="UART" style="edgeLabel;html=1;align=center;verticalAlign=middle;resizable=0;points=[];labelBackgroundColor=none;" vertex="1" connectable="0" parent="FyKXJC8bxWe7IaWZgprI-12">
          <mxGeometry x="0.1111" y="1" relative="1" as="geometry">
            <mxPoint y="-11" as="offset" />
          </mxGeometry>
        </mxCell>
        <mxCell id="FyKXJC8bxWe7IaWZgprI-13" value="Компютър&amp;nbsp;" style="rounded=0;whiteSpace=wrap;html=1;" vertex="1" parent="1">
          <mxGeometry x="650" y="490" width="120" height="60" as="geometry" />
        </mxCell>
        <mxCell id="FyKXJC8bxWe7IaWZgprI-14" value="" style="verticalLabelPosition=bottom;shadow=0;dashed=0;align=center;html=1;verticalAlign=top;shape=mxgraph.electrical.radio.aerial_-_antenna_2;" vertex="1" parent="1">
          <mxGeometry x="160" y="430" width="40" height="50" as="geometry" />
        </mxCell>
        <mxCell id="FyKXJC8bxWe7IaWZgprI-15" style="edgeStyle=orthogonalEdgeStyle;rounded=0;orthogonalLoop=1;jettySize=auto;html=1;exitX=0;exitY=0.5;exitDx=0;exitDy=0;entryX=0.5;entryY=1;entryDx=0;entryDy=0;entryPerimeter=0;endArrow=none;startFill=0;" edge="1" parent="1" source="FyKXJC8bxWe7IaWZgprI-9" target="FyKXJC8bxWe7IaWZgprI-14">
          <mxGeometry relative="1" as="geometry" />
        </mxCell>
        <mxCell id="FyKXJC8bxWe7IaWZgprI-22" value="Satellite" style="text;html=1;align=center;verticalAlign=middle;whiteSpace=wrap;rounded=0;" vertex="1" parent="1">
          <mxGeometry x="445" y="100" width="60" height="30" as="geometry" />
        </mxCell>
        <mxCell id="FyKXJC8bxWe7IaWZgprI-23" value="Ground station" style="text;html=1;align=center;verticalAlign=middle;whiteSpace=wrap;rounded=0;" vertex="1" parent="1">
          <mxGeometry x="445" y="400" width="60" height="30" as="geometry" />
        </mxCell>
        <mxCell id="FyKXJC8bxWe7IaWZgprI-24" value="" style="endArrow=classic;startArrow=classic;html=1;rounded=0;exitX=0.5;exitY=0;exitDx=0;exitDy=0;" edge="1" parent="1">
          <mxGeometry width="50" height="50" relative="1" as="geometry">
            <mxPoint x="179.5" y="390" as="sourcePoint" />
            <mxPoint x="179.5" y="300" as="targetPoint" />
          </mxGeometry>
        </mxCell>
      </root>
    </mxGraphModel>
  </diagram>
</mxfile>
